<svg xmlns="http://www.w3.org/2000/svg" width="29" height="30" viewBox="0 0 29 30">
    <g fill="none" fill-rule="evenodd">
        <g>
            <g>
                <g>
                    <path d="M0 0H28.771V28.771H0z" transform="translate(-51.000000, -568.000000) translate(37.500000, 558.750000) translate(13.728831, 9.614466)"/>
                    <path fill="#000" d="M13.882 4.454c-6.012 0-10.885 3.852-10.885 8.605 0 3.093 2.065 5.804 5.164 7.32-.228.85-.825 3.08-.945 3.557-.147.592.218.584.456.424.187-.124 2.983-2.025 4.19-2.845.654.097 1.329.149 2.02.149 6.011 0 10.884-3.853 10.884-8.605 0-4.753-4.873-8.605-10.884-8.605" transform="translate(-51.000000, -568.000000) translate(37.500000, 558.750000) translate(13.728831, 9.614466)"/>
                </g>
            </g>
        </g>
    </g>
</svg>
